<svg width="48" height="48" viewBox="0 0 48 48" fill="none" xmlns="http://www.w3.org/2000/svg">
<path d="M29.6116 9.1425V5.505C29.6116 4.605 28.9141 3.9075 28.0141 3.9075H27.6016C27.6016 3.855 27.6091 3.8025 27.6091 3.7575C27.6091 1.6875 25.9891 0 24.0016 0C22.0066 0 20.3866 1.6875 20.3866 3.765V3.915H19.9816C19.0966 3.915 18.3766 4.6275 18.3766 5.5125V9.15C9.99906 11.625 4.16406 19.4175 4.16406 28.1625C4.16406 39.0975 13.0666 48 24.0016 48C34.9441 48 43.8391 39.0975 43.8391 28.1625C43.8391 19.41 37.9966 11.6175 29.6116 9.1425ZM35.4916 22.5075C35.4316 22.71 35.2891 22.8825 35.1016 22.9875L32.2216 24.555L34.3366 25.17C34.7566 25.2975 35.0041 25.74 34.8841 26.1675C34.7791 26.505 34.4641 26.7525 34.1116 26.7525C34.0291 26.7525 33.9541 26.7375 33.8866 26.715L30.2266 25.65L25.5916 28.185L30.0466 31.0425L33.7741 30.2325C33.8266 30.2175 33.8866 30.21 33.9466 30.21C34.3216 30.21 34.6516 30.4725 34.7341 30.84C34.8241 31.275 34.5466 31.7025 34.1191 31.8L31.9666 32.2725L34.7341 34.0425C35.1016 34.275 35.2141 34.7775 34.9741 35.1525C34.8241 35.3775 34.5691 35.52 34.2991 35.52C34.1416 35.52 33.9916 35.475 33.8641 35.3925L31.1041 33.615L31.5766 35.7675C31.6216 35.97 31.5841 36.1875 31.4716 36.3675C31.3516 36.555 31.1791 36.675 30.9616 36.72C30.9091 36.735 30.8491 36.7425 30.7816 36.7425C30.4066 36.7425 30.0841 36.48 30.0016 36.1125L29.1766 32.3925L24.7516 29.5575L24.5341 34.86L27.1066 37.6725C27.4066 38.0025 27.3841 38.5125 27.0616 38.8125C26.9041 38.9475 26.7166 39.015 26.5141 39.015C26.2891 39.015 26.0716 38.9175 25.9141 38.76L24.4366 37.14L24.2941 40.4025C24.2791 40.83 23.9266 41.1675 23.4916 41.1675H23.4541C23.0116 41.1525 22.6666 40.7775 22.6891 40.3275L22.8241 37.065L21.2116 38.5575C21.0616 38.6925 20.8741 38.7675 20.6641 38.7675C20.4466 38.7675 20.2291 38.67 20.0716 38.505C19.7716 38.1825 19.7941 37.6725 20.1166 37.3725L22.9216 34.785L23.1391 29.505L18.5041 32.04L17.4241 35.6925C17.3191 36.03 17.0041 36.27 16.6516 36.27C16.5766 36.27 16.4941 36.255 16.4266 36.24C15.9991 36.105 15.7591 35.655 15.8791 35.2425L16.5016 33.135L13.6741 34.6725C13.5541 34.74 13.4266 34.7775 13.2841 34.7775C12.9916 34.7775 12.7216 34.6125 12.5866 34.3575C12.4816 34.1625 12.4516 33.9525 12.5191 33.75C12.5791 33.54 12.7141 33.3675 12.9016 33.2625L15.7291 31.725L13.6216 31.11C13.4191 31.05 13.2466 30.9075 13.1416 30.7275C13.0366 30.5325 13.0141 30.3225 13.0741 30.12C13.1716 29.7825 13.4866 29.535 13.8466 29.535C13.9216 29.535 13.9966 29.55 14.0641 29.5725L17.7241 30.6375L22.4191 28.0725L17.9116 25.185L14.1841 25.995C14.1316 26.01 14.0716 26.0175 14.0116 26.0175C13.6366 26.0175 13.3066 25.755 13.2241 25.3875C13.1341 24.9525 13.4116 24.525 13.8391 24.4275L15.9916 23.955L13.2766 22.215C13.0891 22.1025 12.9691 21.9225 12.9241 21.7125C12.8791 21.5025 12.9166 21.285 13.0366 21.1125C13.1866 20.88 13.4341 20.7375 13.7116 20.7375C13.8691 20.7375 14.0116 20.7825 14.1466 20.8725L16.8541 22.605L16.3816 20.46C16.2841 20.025 16.5616 19.5975 16.9891 19.5C17.0491 19.485 17.1091 19.4775 17.1616 19.4775C17.5366 19.4775 17.8666 19.74 17.9491 20.1075L18.7741 23.8275L23.2516 26.685L23.4691 21.4425L20.8966 18.63C20.5966 18.3 20.6191 17.79 20.9491 17.49C21.0991 17.355 21.2866 17.2875 21.4891 17.2875C21.7141 17.2875 21.9316 17.385 22.0891 17.5425L23.5666 19.1625L23.7091 15.93C23.7316 15.4725 24.1441 15.1575 24.5266 15.1575C24.9841 15.18 25.3366 15.555 25.3141 15.9975L25.1791 19.2375L26.7916 17.745C26.9416 17.61 27.1366 17.535 27.3391 17.535C27.5566 17.535 27.7816 17.6325 27.9316 17.79C28.0816 17.955 28.1491 18.1575 28.1416 18.375C28.1341 18.5925 28.0441 18.7875 27.8866 18.9375L25.0891 21.525L24.8716 26.745L29.4616 24.24L30.5416 20.5875C30.6466 20.25 30.9616 20.01 31.3141 20.01C31.3891 20.01 31.4716 20.0175 31.5391 20.04C31.9666 20.1675 32.2066 20.6175 32.0866 21.0375L31.4641 23.145L34.3441 21.5775C34.4641 21.51 34.5916 21.48 34.7266 21.48C35.0191 21.48 35.2966 21.6375 35.4316 21.9C35.5291 22.08 35.5516 22.2975 35.4916 22.5075ZM19.9891 5.5125L28.0141 5.505V8.7375C26.6866 8.4675 25.3441 8.325 24.0016 8.325C22.6591 8.325 21.3166 8.4675 19.9891 8.7375V5.5125Z" fill="#C1121F"/>
<path d="M35.4916 22.5075C35.4316 22.71 35.2891 22.8825 35.1016 22.9875L32.2216 24.555L34.3366 25.17C34.7566 25.2975 35.0041 25.74 34.8841 26.1675C34.7791 26.505 34.4641 26.7525 34.1116 26.7525C34.0291 26.7525 33.9541 26.7375 33.8866 26.715L30.2266 25.65L25.5916 28.185L30.0466 31.0425L33.7741 30.2325C33.8266 30.2175 33.8866 30.21 33.9466 30.21C34.3216 30.21 34.6516 30.4725 34.7341 30.84C34.8241 31.275 34.5466 31.7025 34.1191 31.8L31.9666 32.2725L34.7341 34.0425C35.1016 34.275 35.2141 34.7775 34.9741 35.1525C34.8241 35.3775 34.5691 35.52 34.2991 35.52C34.1416 35.52 33.9916 35.475 33.8641 35.3925L31.1041 33.615L31.5766 35.7675C31.6216 35.97 31.5841 36.1875 31.4716 36.3675C31.3516 36.555 31.1791 36.675 30.9616 36.72C30.9091 36.735 30.8491 36.7425 30.7816 36.7425C30.4066 36.7425 30.0841 36.48 30.0016 36.1125L29.1766 32.3925L24.7516 29.5575L24.5341 34.86L27.1066 37.6725C27.4066 38.0025 27.3841 38.5125 27.0616 38.8125C26.9041 38.9475 26.7166 39.015 26.5141 39.015C26.2891 39.015 26.0716 38.9175 25.9141 38.76L24.4366 37.14L24.2941 40.4025C24.2791 40.83 23.9266 41.1675 23.4916 41.1675H23.4541C23.0116 41.1525 22.6666 40.7775 22.6891 40.3275L22.8241 37.065L21.2116 38.5575C21.0616 38.6925 20.8741 38.7675 20.6641 38.7675C20.4466 38.7675 20.2291 38.67 20.0716 38.505C19.7716 38.1825 19.7941 37.6725 20.1166 37.3725L22.9216 34.785L23.1391 29.505L18.5041 32.04L17.4241 35.6925C17.3191 36.03 17.0041 36.27 16.6516 36.27C16.5766 36.27 16.4941 36.255 16.4266 36.24C15.9991 36.105 15.7591 35.655 15.8791 35.2425L16.5016 33.135L13.6741 34.6725C13.5541 34.74 13.4266 34.7775 13.2841 34.7775C12.9916 34.7775 12.7216 34.6125 12.5866 34.3575C12.4816 34.1625 12.4516 33.9525 12.5191 33.75C12.5791 33.54 12.7141 33.3675 12.9016 33.2625L15.7291 31.725L13.6216 31.11C13.4191 31.05 13.2466 30.9075 13.1416 30.7275C13.0366 30.5325 13.0141 30.3225 13.0741 30.12C13.1716 29.7825 13.4866 29.535 13.8466 29.535C13.9216 29.535 13.9966 29.55 14.0641 29.5725L17.7241 30.6375L22.4191 28.0725L17.9116 25.185L14.1841 25.995C14.1316 26.01 14.0716 26.0175 14.0116 26.0175C13.6366 26.0175 13.3066 25.755 13.2241 25.3875C13.1341 24.9525 13.4116 24.525 13.8391 24.4275L15.9916 23.955L13.2766 22.215C13.0891 22.1025 12.9691 21.9225 12.9241 21.7125C12.8791 21.5025 12.9166 21.285 13.0366 21.1125C13.1866 20.88 13.4341 20.7375 13.7116 20.7375C13.8691 20.7375 14.0116 20.7825 14.1466 20.8725L16.8541 22.605L16.3816 20.46C16.2841 20.025 16.5616 19.5975 16.9891 19.5C17.0491 19.485 17.1091 19.4775 17.1616 19.4775C17.5366 19.4775 17.8666 19.74 17.9491 20.1075L18.7741 23.8275L23.2516 26.685L23.4691 21.4425L20.8966 18.63C20.5966 18.3 20.6191 17.79 20.9491 17.49C21.0991 17.355 21.2866 17.2875 21.4891 17.2875C21.7141 17.2875 21.9316 17.385 22.0891 17.5425L23.5666 19.1625L23.7091 15.93C23.7316 15.4725 24.1441 15.1575 24.5266 15.1575C24.9841 15.18 25.3366 15.555 25.3141 15.9975L25.1791 19.2375L26.7916 17.745C26.9416 17.61 27.1366 17.535 27.3391 17.535C27.5566 17.535 27.7816 17.6325 27.9316 17.79C28.0816 17.955 28.1491 18.1575 28.1416 18.375C28.1341 18.5925 28.0441 18.7875 27.8866 18.9375L25.0891 21.525L24.8716 26.745L29.4616 24.24L30.5416 20.5875C30.6466 20.25 30.9616 20.01 31.3141 20.01C31.3891 20.01 31.4716 20.0175 31.5391 20.04C31.9666 20.1675 32.2066 20.6175 32.0866 21.0375L31.4641 23.145L34.3441 21.5775C34.4641 21.51 34.5916 21.48 34.7266 21.48C35.0191 21.48 35.2966 21.6375 35.4316 21.9C35.5291 22.08 35.5516 22.2975 35.4916 22.5075Z" fill="white"/>
</svg>
